<mxfile host="app.diagrams.net" modified="2021-12-17T03:17:38.438Z" agent="5.0 (Macintosh; Intel Mac OS X 10_15_7) AppleWebKit/537.36 (KHTML, like Gecko) Chrome/96.0.4664.110 Safari/537.36" etag="1Xee3AmTEsh2iuMxF81b" version="15.9.6" type="github">
  <diagram name="Page-1" id="74e2e168-ea6b-b213-b513-2b3c1d86103e">
    <mxGraphModel dx="2526" dy="794" grid="0" gridSize="10" guides="1" tooltips="1" connect="1" arrows="1" fold="1" page="1" pageScale="1" pageWidth="1100" pageHeight="850" background="#FFFFFF" math="0" shadow="1">
      <root>
        <mxCell id="0" />
        <mxCell id="1" parent="0" />
        <mxCell id="77e6c97f196da883-1" value="平安银行-资金流向 &amp;amp; 账务信息流向" style="swimlane;html=1;childLayout=stackLayout;startSize=20;rounded=0;shadow=0;labelBackgroundColor=none;strokeWidth=1;fontFamily=Verdana;fontSize=8;align=center;" parent="1" vertex="1">
          <mxGeometry x="70" y="40" width="1110" height="1276" as="geometry" />
        </mxCell>
        <mxCell id="77e6c97f196da883-2" value="供应商" style="swimlane;html=1;startSize=20;fillColor=#99FFFF;" parent="77e6c97f196da883-1" vertex="1">
          <mxGeometry y="20" width="160" height="1256" as="geometry" />
        </mxCell>
        <mxCell id="77e6c97f196da883-8" value="银行账户" style="rounded=1;whiteSpace=wrap;html=1;shadow=0;labelBackgroundColor=none;strokeWidth=1;fontFamily=Verdana;fontSize=8;align=center;fillColor=#66FFFF;" parent="77e6c97f196da883-2" vertex="1">
          <mxGeometry x="20" y="65" width="100" height="60" as="geometry" />
        </mxCell>
        <mxCell id="sRZQtEzKt_-hk_8WQD4q-59" value="" style="endArrow=none;html=1;rounded=0;" parent="77e6c97f196da883-2" edge="1">
          <mxGeometry width="50" height="50" relative="1" as="geometry">
            <mxPoint y="690" as="sourcePoint" />
            <mxPoint x="1110" y="690" as="targetPoint" />
          </mxGeometry>
        </mxCell>
        <mxCell id="77e6c97f196da883-26" style="edgeStyle=orthogonalEdgeStyle;rounded=1;html=1;labelBackgroundColor=none;startArrow=none;startFill=0;startSize=5;endArrow=classicThin;endFill=1;endSize=5;jettySize=auto;orthogonalLoop=1;strokeWidth=1;fontFamily=Verdana;fontSize=8" parent="77e6c97f196da883-1" source="77e6c97f196da883-8" target="77e6c97f196da883-11" edge="1">
          <mxGeometry relative="1" as="geometry" />
        </mxCell>
        <mxCell id="77e6c97f196da883-3" value="尽微" style="swimlane;html=1;startSize=20;fillColor=#007FFF;" parent="77e6c97f196da883-1" vertex="1">
          <mxGeometry x="160" y="20" width="160" height="1256" as="geometry" />
        </mxCell>
        <mxCell id="sRZQtEzKt_-hk_8WQD4q-1" value="供应商支付单" style="shape=document;whiteSpace=wrap;html=1;boundedLbl=1;" parent="77e6c97f196da883-3" vertex="1">
          <mxGeometry x="20" y="180" width="120" height="80" as="geometry" />
        </mxCell>
        <mxCell id="sRZQtEzKt_-hk_8WQD4q-57" value="" style="endArrow=none;html=1;rounded=0;" parent="77e6c97f196da883-3" edge="1">
          <mxGeometry width="50" height="50" relative="1" as="geometry">
            <mxPoint x="-160" y="400" as="sourcePoint" />
            <mxPoint x="950" y="400" as="targetPoint" />
          </mxGeometry>
        </mxCell>
        <mxCell id="77e6c97f196da883-4" value="易宝支付" style="swimlane;html=1;startSize=20;fillColor=#66FFB3;" parent="77e6c97f196da883-1" vertex="1">
          <mxGeometry x="320" y="20" width="160" height="1256" as="geometry" />
        </mxCell>
        <mxCell id="77e6c97f196da883-11" value="尽微收款商户" style="rounded=1;whiteSpace=wrap;html=1;shadow=0;labelBackgroundColor=none;strokeWidth=1;fontFamily=Verdana;fontSize=8;align=center;" parent="77e6c97f196da883-4" vertex="1">
          <mxGeometry x="30" y="65" width="100" height="60" as="geometry" />
        </mxCell>
        <mxCell id="sRZQtEzKt_-hk_8WQD4q-6" value="尽微收款商户" style="rounded=1;whiteSpace=wrap;html=1;shadow=0;labelBackgroundColor=none;strokeWidth=1;fontFamily=Verdana;fontSize=8;align=center;" parent="77e6c97f196da883-4" vertex="1">
          <mxGeometry x="30" y="305" width="100" height="60" as="geometry" />
        </mxCell>
        <mxCell id="77e6c97f196da883-5" value="平安银行(见证宝)" style="swimlane;html=1;startSize=20;fillColor=#FF9933;" parent="77e6c97f196da883-1" vertex="1">
          <mxGeometry x="480" y="20" width="470" height="1256" as="geometry" />
        </mxCell>
        <mxCell id="sRZQtEzKt_-hk_8WQD4q-2" value="供应商子账户" style="shape=document;whiteSpace=wrap;html=1;boundedLbl=1;fillColor=#66FFFF;" parent="77e6c97f196da883-5" vertex="1">
          <mxGeometry x="180" y="180" width="120" height="80" as="geometry" />
        </mxCell>
        <mxCell id="sRZQtEzKt_-hk_8WQD4q-8" value="见证宝汇总专户" style="rounded=1;whiteSpace=wrap;html=1;shadow=0;labelBackgroundColor=none;strokeWidth=1;fontFamily=Verdana;fontSize=8;align=center;" parent="77e6c97f196da883-5" vertex="1">
          <mxGeometry x="190" y="305" width="100" height="60" as="geometry" />
        </mxCell>
        <mxCell id="sRZQtEzKt_-hk_8WQD4q-16" style="edgeStyle=orthogonalEdgeStyle;rounded=0;orthogonalLoop=1;jettySize=auto;html=1;entryX=0.5;entryY=0;entryDx=0;entryDy=0;" parent="77e6c97f196da883-5" source="sRZQtEzKt_-hk_8WQD4q-12" target="sRZQtEzKt_-hk_8WQD4q-13" edge="1">
          <mxGeometry relative="1" as="geometry" />
        </mxCell>
        <mxCell id="sRZQtEzKt_-hk_8WQD4q-19" value="会员间交易-支付平台服务费" style="edgeLabel;html=1;align=center;verticalAlign=middle;resizable=0;points=[];" parent="sRZQtEzKt_-hk_8WQD4q-16" vertex="1" connectable="0">
          <mxGeometry x="-0.14" y="-2" relative="1" as="geometry">
            <mxPoint as="offset" />
          </mxGeometry>
        </mxCell>
        <mxCell id="sRZQtEzKt_-hk_8WQD4q-17" style="edgeStyle=orthogonalEdgeStyle;rounded=0;orthogonalLoop=1;jettySize=auto;html=1;entryX=0.5;entryY=0;entryDx=0;entryDy=0;" parent="77e6c97f196da883-5" source="sRZQtEzKt_-hk_8WQD4q-12" target="sRZQtEzKt_-hk_8WQD4q-14" edge="1">
          <mxGeometry relative="1" as="geometry" />
        </mxCell>
        <mxCell id="sRZQtEzKt_-hk_8WQD4q-20" value="会员间交易-佣金" style="edgeLabel;html=1;align=center;verticalAlign=middle;resizable=0;points=[];" parent="sRZQtEzKt_-hk_8WQD4q-17" vertex="1" connectable="0">
          <mxGeometry x="-0.1667" y="1" relative="1" as="geometry">
            <mxPoint as="offset" />
          </mxGeometry>
        </mxCell>
        <mxCell id="sRZQtEzKt_-hk_8WQD4q-18" style="edgeStyle=orthogonalEdgeStyle;rounded=0;orthogonalLoop=1;jettySize=auto;html=1;entryX=0.5;entryY=0;entryDx=0;entryDy=0;" parent="77e6c97f196da883-5" source="sRZQtEzKt_-hk_8WQD4q-12" target="sRZQtEzKt_-hk_8WQD4q-15" edge="1">
          <mxGeometry relative="1" as="geometry" />
        </mxCell>
        <mxCell id="sRZQtEzKt_-hk_8WQD4q-21" value="会员间交易-品牌费" style="edgeLabel;html=1;align=center;verticalAlign=middle;resizable=0;points=[];" parent="sRZQtEzKt_-hk_8WQD4q-18" vertex="1" connectable="0">
          <mxGeometry x="-0.1158" y="-1" relative="1" as="geometry">
            <mxPoint as="offset" />
          </mxGeometry>
        </mxCell>
        <mxCell id="sRZQtEzKt_-hk_8WQD4q-12" value="供应商子账户" style="shape=document;whiteSpace=wrap;html=1;boundedLbl=1;" parent="77e6c97f196da883-5" vertex="1">
          <mxGeometry x="180" y="440" width="120" height="80" as="geometry" />
        </mxCell>
        <mxCell id="sRZQtEzKt_-hk_8WQD4q-13" value="尽微子账户" style="shape=document;whiteSpace=wrap;html=1;boundedLbl=1;" parent="77e6c97f196da883-5" vertex="1">
          <mxGeometry x="20" y="580" width="120" height="80" as="geometry" />
        </mxCell>
        <mxCell id="sRZQtEzKt_-hk_8WQD4q-14" value="机构子账户" style="shape=document;whiteSpace=wrap;html=1;boundedLbl=1;" parent="77e6c97f196da883-5" vertex="1">
          <mxGeometry x="180" y="580" width="120" height="80" as="geometry" />
        </mxCell>
        <mxCell id="sRZQtEzKt_-hk_8WQD4q-15" value="达人子账户" style="shape=document;whiteSpace=wrap;html=1;boundedLbl=1;" parent="77e6c97f196da883-5" vertex="1">
          <mxGeometry x="330" y="580" width="120" height="80" as="geometry" />
        </mxCell>
        <mxCell id="sRZQtEzKt_-hk_8WQD4q-35" value="见证宝汇总专户" style="rounded=1;whiteSpace=wrap;html=1;shadow=0;labelBackgroundColor=none;strokeWidth=1;fontFamily=Verdana;fontSize=8;align=center;" parent="77e6c97f196da883-5" vertex="1">
          <mxGeometry x="190" y="885" width="100" height="60" as="geometry" />
        </mxCell>
        <mxCell id="sRZQtEzKt_-hk_8WQD4q-49" value="尽微子账户提现扣减" style="shape=document;whiteSpace=wrap;html=1;boundedLbl=1;" parent="77e6c97f196da883-5" vertex="1">
          <mxGeometry x="25" y="740" width="120" height="80" as="geometry" />
        </mxCell>
        <mxCell id="sRZQtEzKt_-hk_8WQD4q-50" value="机构子账户提现扣减" style="shape=document;whiteSpace=wrap;html=1;boundedLbl=1;" parent="77e6c97f196da883-5" vertex="1">
          <mxGeometry x="185" y="740" width="120" height="80" as="geometry" />
        </mxCell>
        <mxCell id="sRZQtEzKt_-hk_8WQD4q-51" value="达人子账户提现扣减" style="shape=document;whiteSpace=wrap;html=1;boundedLbl=1;" parent="77e6c97f196da883-5" vertex="1">
          <mxGeometry x="335" y="740" width="120" height="80" as="geometry" />
        </mxCell>
        <mxCell id="sRZQtEzKt_-hk_8WQD4q-9" style="edgeStyle=orthogonalEdgeStyle;rounded=0;orthogonalLoop=1;jettySize=auto;html=1;entryX=0;entryY=0.5;entryDx=0;entryDy=0;" parent="77e6c97f196da883-1" source="sRZQtEzKt_-hk_8WQD4q-6" target="sRZQtEzKt_-hk_8WQD4q-8" edge="1">
          <mxGeometry relative="1" as="geometry" />
        </mxCell>
        <mxCell id="sRZQtEzKt_-hk_8WQD4q-10" value="D+1提现" style="edgeLabel;html=1;align=center;verticalAlign=middle;resizable=0;points=[];" parent="sRZQtEzKt_-hk_8WQD4q-9" vertex="1" connectable="0">
          <mxGeometry x="-0.2857" relative="1" as="geometry">
            <mxPoint as="offset" />
          </mxGeometry>
        </mxCell>
        <mxCell id="77e6c97f196da883-6" value="达人/机构/尽微 银行账户" style="swimlane;html=1;startSize=20;" parent="77e6c97f196da883-1" vertex="1">
          <mxGeometry x="950" y="20" width="160" height="1256" as="geometry" />
        </mxCell>
        <mxCell id="sRZQtEzKt_-hk_8WQD4q-36" value="达人对公银行账户" style="rounded=1;whiteSpace=wrap;html=1;shadow=0;labelBackgroundColor=none;strokeWidth=1;fontFamily=Verdana;fontSize=8;align=center;" parent="77e6c97f196da883-6" vertex="1">
          <mxGeometry x="25" y="955" width="100" height="60" as="geometry" />
        </mxCell>
        <mxCell id="sRZQtEzKt_-hk_8WQD4q-37" value="机构对公银行账户" style="rounded=1;whiteSpace=wrap;html=1;shadow=0;labelBackgroundColor=none;strokeWidth=1;fontFamily=Verdana;fontSize=8;align=center;" parent="77e6c97f196da883-6" vertex="1">
          <mxGeometry x="25" y="1055" width="100" height="60" as="geometry" />
        </mxCell>
        <mxCell id="sRZQtEzKt_-hk_8WQD4q-38" value="尽微对公银行账户" style="rounded=1;whiteSpace=wrap;html=1;shadow=0;labelBackgroundColor=none;strokeWidth=1;fontFamily=Verdana;fontSize=8;align=center;" parent="77e6c97f196da883-6" vertex="1">
          <mxGeometry x="25" y="1155" width="100" height="60" as="geometry" />
        </mxCell>
        <mxCell id="sRZQtEzKt_-hk_8WQD4q-3" style="edgeStyle=orthogonalEdgeStyle;rounded=0;orthogonalLoop=1;jettySize=auto;html=1;" parent="77e6c97f196da883-1" source="sRZQtEzKt_-hk_8WQD4q-1" target="sRZQtEzKt_-hk_8WQD4q-2" edge="1">
          <mxGeometry relative="1" as="geometry" />
        </mxCell>
        <mxCell id="sRZQtEzKt_-hk_8WQD4q-4" value="冻结充值" style="edgeLabel;html=1;align=center;verticalAlign=middle;resizable=0;points=[];" parent="sRZQtEzKt_-hk_8WQD4q-3" vertex="1" connectable="0">
          <mxGeometry x="-0.2286" relative="1" as="geometry">
            <mxPoint as="offset" />
          </mxGeometry>
        </mxCell>
        <mxCell id="sRZQtEzKt_-hk_8WQD4q-39" style="edgeStyle=orthogonalEdgeStyle;rounded=0;orthogonalLoop=1;jettySize=auto;html=1;entryX=0;entryY=0.5;entryDx=0;entryDy=0;exitX=0.5;exitY=1;exitDx=0;exitDy=0;" parent="77e6c97f196da883-1" source="sRZQtEzKt_-hk_8WQD4q-35" target="sRZQtEzKt_-hk_8WQD4q-36" edge="1">
          <mxGeometry relative="1" as="geometry" />
        </mxCell>
        <mxCell id="sRZQtEzKt_-hk_8WQD4q-40" style="edgeStyle=orthogonalEdgeStyle;rounded=0;orthogonalLoop=1;jettySize=auto;html=1;entryX=0;entryY=0.5;entryDx=0;entryDy=0;exitX=0.5;exitY=1;exitDx=0;exitDy=0;" parent="77e6c97f196da883-1" source="sRZQtEzKt_-hk_8WQD4q-35" target="sRZQtEzKt_-hk_8WQD4q-37" edge="1">
          <mxGeometry relative="1" as="geometry" />
        </mxCell>
        <mxCell id="sRZQtEzKt_-hk_8WQD4q-41" style="edgeStyle=orthogonalEdgeStyle;rounded=0;orthogonalLoop=1;jettySize=auto;html=1;entryX=0;entryY=0.5;entryDx=0;entryDy=0;exitX=0.5;exitY=1;exitDx=0;exitDy=0;" parent="77e6c97f196da883-1" source="sRZQtEzKt_-hk_8WQD4q-35" target="sRZQtEzKt_-hk_8WQD4q-38" edge="1">
          <mxGeometry relative="1" as="geometry" />
        </mxCell>
        <mxCell id="sRZQtEzKt_-hk_8WQD4q-42" value="提现" style="edgeLabel;html=1;align=center;verticalAlign=middle;resizable=0;points=[];" parent="sRZQtEzKt_-hk_8WQD4q-41" vertex="1" connectable="0">
          <mxGeometry x="-0.3939" y="2" relative="1" as="geometry">
            <mxPoint as="offset" />
          </mxGeometry>
        </mxCell>
        <mxCell id="sRZQtEzKt_-hk_8WQD4q-60" value="充值阶段" style="text;strokeColor=none;fillColor=none;html=1;fontSize=24;fontStyle=1;verticalAlign=middle;align=center;" parent="1" vertex="1">
          <mxGeometry x="-70" y="261" width="100" height="40" as="geometry" />
        </mxCell>
        <mxCell id="sRZQtEzKt_-hk_8WQD4q-61" value="付款阶段" style="text;strokeColor=none;fillColor=none;html=1;fontSize=24;fontStyle=1;verticalAlign=middle;align=center;" parent="1" vertex="1">
          <mxGeometry x="-70" y="580" width="100" height="40" as="geometry" />
        </mxCell>
        <mxCell id="sRZQtEzKt_-hk_8WQD4q-62" value="提现阶段" style="text;strokeColor=none;fillColor=none;html=1;fontSize=24;fontStyle=1;verticalAlign=middle;align=center;" parent="1" vertex="1">
          <mxGeometry x="-50" y="1000" width="100" height="40" as="geometry" />
        </mxCell>
        <mxCell id="c--ynm-WmX_gCErY2zRD-1" value="代表资金" style="rounded=1;whiteSpace=wrap;html=1;shadow=0;labelBackgroundColor=none;strokeWidth=1;fontFamily=Verdana;fontSize=8;align=center;" vertex="1" parent="1">
          <mxGeometry x="-70" y="40" width="100" height="60" as="geometry" />
        </mxCell>
        <mxCell id="c--ynm-WmX_gCErY2zRD-2" value="代表账务信息" style="shape=document;whiteSpace=wrap;html=1;boundedLbl=1;" vertex="1" parent="1">
          <mxGeometry x="-70" y="124" width="120" height="80" as="geometry" />
        </mxCell>
        <mxCell id="c--ynm-WmX_gCErY2zRD-43" value="平安银行-资金流向 &amp;amp; 账务信息流向" style="swimlane;html=1;childLayout=stackLayout;startSize=20;rounded=0;shadow=0;labelBackgroundColor=none;strokeWidth=1;fontFamily=Verdana;fontSize=8;align=center;" vertex="1" parent="1">
          <mxGeometry x="65" y="1459" width="1110" height="1282" as="geometry" />
        </mxCell>
        <mxCell id="c--ynm-WmX_gCErY2zRD-44" value="供应商" style="swimlane;html=1;startSize=20;fillColor=#99FFFF;" vertex="1" parent="c--ynm-WmX_gCErY2zRD-43">
          <mxGeometry y="20" width="160" height="1262" as="geometry" />
        </mxCell>
        <mxCell id="c--ynm-WmX_gCErY2zRD-45" value="银行账户" style="rounded=1;whiteSpace=wrap;html=1;shadow=0;labelBackgroundColor=none;strokeWidth=1;fontFamily=Verdana;fontSize=8;align=center;fillColor=#66FFFF;" vertex="1" parent="c--ynm-WmX_gCErY2zRD-44">
          <mxGeometry x="20" y="65" width="100" height="60" as="geometry" />
        </mxCell>
        <mxCell id="c--ynm-WmX_gCErY2zRD-46" value="" style="endArrow=none;html=1;rounded=0;" edge="1" parent="c--ynm-WmX_gCErY2zRD-44">
          <mxGeometry width="50" height="50" relative="1" as="geometry">
            <mxPoint y="690" as="sourcePoint" />
            <mxPoint x="1110" y="690" as="targetPoint" />
          </mxGeometry>
        </mxCell>
        <mxCell id="c--ynm-WmX_gCErY2zRD-47" style="edgeStyle=orthogonalEdgeStyle;rounded=1;html=1;labelBackgroundColor=none;startArrow=none;startFill=0;startSize=5;endArrow=classicThin;endFill=1;endSize=5;jettySize=auto;orthogonalLoop=1;strokeWidth=1;fontFamily=Verdana;fontSize=8" edge="1" parent="c--ynm-WmX_gCErY2zRD-43" source="c--ynm-WmX_gCErY2zRD-45" target="c--ynm-WmX_gCErY2zRD-52">
          <mxGeometry relative="1" as="geometry" />
        </mxCell>
        <mxCell id="c--ynm-WmX_gCErY2zRD-48" value="尽微" style="swimlane;html=1;startSize=20;fillColor=#007FFF;" vertex="1" parent="c--ynm-WmX_gCErY2zRD-43">
          <mxGeometry x="160" y="20" width="160" height="1262" as="geometry" />
        </mxCell>
        <mxCell id="c--ynm-WmX_gCErY2zRD-49" value="供应商支付单" style="shape=document;whiteSpace=wrap;html=1;boundedLbl=1;" vertex="1" parent="c--ynm-WmX_gCErY2zRD-48">
          <mxGeometry x="20" y="180" width="120" height="80" as="geometry" />
        </mxCell>
        <mxCell id="c--ynm-WmX_gCErY2zRD-50" value="" style="endArrow=none;html=1;rounded=0;" edge="1" parent="c--ynm-WmX_gCErY2zRD-48">
          <mxGeometry width="50" height="50" relative="1" as="geometry">
            <mxPoint x="-160" y="400" as="sourcePoint" />
            <mxPoint x="950" y="400" as="targetPoint" />
          </mxGeometry>
        </mxCell>
        <mxCell id="c--ynm-WmX_gCErY2zRD-51" value="易宝支付" style="swimlane;html=1;startSize=20;fillColor=#66FFB3;" vertex="1" parent="c--ynm-WmX_gCErY2zRD-43">
          <mxGeometry x="320" y="20" width="160" height="1262" as="geometry" />
        </mxCell>
        <mxCell id="c--ynm-WmX_gCErY2zRD-52" value="尽微收款商户" style="rounded=1;whiteSpace=wrap;html=1;shadow=0;labelBackgroundColor=none;strokeWidth=1;fontFamily=Verdana;fontSize=8;align=center;" vertex="1" parent="c--ynm-WmX_gCErY2zRD-51">
          <mxGeometry x="30" y="65" width="100" height="60" as="geometry" />
        </mxCell>
        <mxCell id="c--ynm-WmX_gCErY2zRD-53" value="尽微收款商户" style="rounded=1;whiteSpace=wrap;html=1;shadow=0;labelBackgroundColor=none;strokeWidth=1;fontFamily=Verdana;fontSize=8;align=center;" vertex="1" parent="c--ynm-WmX_gCErY2zRD-51">
          <mxGeometry x="30" y="305" width="100" height="60" as="geometry" />
        </mxCell>
        <mxCell id="c--ynm-WmX_gCErY2zRD-54" value="平安银行(见证宝)" style="swimlane;html=1;startSize=20;fillColor=#FF9933;" vertex="1" parent="c--ynm-WmX_gCErY2zRD-43">
          <mxGeometry x="480" y="20" width="470" height="1262" as="geometry" />
        </mxCell>
        <mxCell id="c--ynm-WmX_gCErY2zRD-55" value="尽微收款子账户" style="shape=document;whiteSpace=wrap;html=1;boundedLbl=1;fillColor=#3399FF;" vertex="1" parent="c--ynm-WmX_gCErY2zRD-54">
          <mxGeometry x="180" y="180" width="120" height="80" as="geometry" />
        </mxCell>
        <mxCell id="c--ynm-WmX_gCErY2zRD-56" value="见证宝汇总专户" style="rounded=1;whiteSpace=wrap;html=1;shadow=0;labelBackgroundColor=none;strokeWidth=1;fontFamily=Verdana;fontSize=8;align=center;" vertex="1" parent="c--ynm-WmX_gCErY2zRD-54">
          <mxGeometry x="190" y="305" width="100" height="60" as="geometry" />
        </mxCell>
        <mxCell id="c--ynm-WmX_gCErY2zRD-57" style="edgeStyle=orthogonalEdgeStyle;rounded=0;orthogonalLoop=1;jettySize=auto;html=1;entryX=0.5;entryY=0;entryDx=0;entryDy=0;" edge="1" parent="c--ynm-WmX_gCErY2zRD-54" source="c--ynm-WmX_gCErY2zRD-63" target="c--ynm-WmX_gCErY2zRD-64">
          <mxGeometry relative="1" as="geometry" />
        </mxCell>
        <mxCell id="c--ynm-WmX_gCErY2zRD-58" value="分账-支付平台服务费" style="edgeLabel;html=1;align=center;verticalAlign=middle;resizable=0;points=[];" vertex="1" connectable="0" parent="c--ynm-WmX_gCErY2zRD-57">
          <mxGeometry x="-0.14" y="-2" relative="1" as="geometry">
            <mxPoint as="offset" />
          </mxGeometry>
        </mxCell>
        <mxCell id="c--ynm-WmX_gCErY2zRD-59" style="edgeStyle=orthogonalEdgeStyle;rounded=0;orthogonalLoop=1;jettySize=auto;html=1;entryX=0.5;entryY=0;entryDx=0;entryDy=0;" edge="1" parent="c--ynm-WmX_gCErY2zRD-54" source="c--ynm-WmX_gCErY2zRD-63" target="c--ynm-WmX_gCErY2zRD-65">
          <mxGeometry relative="1" as="geometry" />
        </mxCell>
        <mxCell id="c--ynm-WmX_gCErY2zRD-60" value="分账-佣金" style="edgeLabel;html=1;align=center;verticalAlign=middle;resizable=0;points=[];" vertex="1" connectable="0" parent="c--ynm-WmX_gCErY2zRD-59">
          <mxGeometry x="-0.1667" y="1" relative="1" as="geometry">
            <mxPoint as="offset" />
          </mxGeometry>
        </mxCell>
        <mxCell id="c--ynm-WmX_gCErY2zRD-61" style="edgeStyle=orthogonalEdgeStyle;rounded=0;orthogonalLoop=1;jettySize=auto;html=1;entryX=0.5;entryY=0;entryDx=0;entryDy=0;" edge="1" parent="c--ynm-WmX_gCErY2zRD-54" source="c--ynm-WmX_gCErY2zRD-63" target="c--ynm-WmX_gCErY2zRD-66">
          <mxGeometry relative="1" as="geometry" />
        </mxCell>
        <mxCell id="c--ynm-WmX_gCErY2zRD-62" value="分账-品牌费" style="edgeLabel;html=1;align=center;verticalAlign=middle;resizable=0;points=[];" vertex="1" connectable="0" parent="c--ynm-WmX_gCErY2zRD-61">
          <mxGeometry x="-0.1158" y="-1" relative="1" as="geometry">
            <mxPoint as="offset" />
          </mxGeometry>
        </mxCell>
        <mxCell id="c--ynm-WmX_gCErY2zRD-63" value="尽微收款子账户" style="shape=document;whiteSpace=wrap;html=1;boundedLbl=1;fillColor=#3399FF;" vertex="1" parent="c--ynm-WmX_gCErY2zRD-54">
          <mxGeometry x="180" y="440" width="120" height="80" as="geometry" />
        </mxCell>
        <mxCell id="c--ynm-WmX_gCErY2zRD-64" value="尽微服务费子账户" style="shape=document;whiteSpace=wrap;html=1;boundedLbl=1;" vertex="1" parent="c--ynm-WmX_gCErY2zRD-54">
          <mxGeometry x="20" y="580" width="120" height="80" as="geometry" />
        </mxCell>
        <mxCell id="c--ynm-WmX_gCErY2zRD-65" value="机构子账户" style="shape=document;whiteSpace=wrap;html=1;boundedLbl=1;" vertex="1" parent="c--ynm-WmX_gCErY2zRD-54">
          <mxGeometry x="180" y="580" width="120" height="80" as="geometry" />
        </mxCell>
        <mxCell id="c--ynm-WmX_gCErY2zRD-66" value="达人子账户" style="shape=document;whiteSpace=wrap;html=1;boundedLbl=1;" vertex="1" parent="c--ynm-WmX_gCErY2zRD-54">
          <mxGeometry x="330" y="580" width="120" height="80" as="geometry" />
        </mxCell>
        <mxCell id="c--ynm-WmX_gCErY2zRD-67" value="见证宝汇总专户" style="rounded=1;whiteSpace=wrap;html=1;shadow=0;labelBackgroundColor=none;strokeWidth=1;fontFamily=Verdana;fontSize=8;align=center;" vertex="1" parent="c--ynm-WmX_gCErY2zRD-54">
          <mxGeometry x="190" y="885" width="100" height="60" as="geometry" />
        </mxCell>
        <mxCell id="c--ynm-WmX_gCErY2zRD-68" value="尽微服务费子账户提现扣减" style="shape=document;whiteSpace=wrap;html=1;boundedLbl=1;fillColor=#FFFFFF;" vertex="1" parent="c--ynm-WmX_gCErY2zRD-54">
          <mxGeometry x="25" y="740" width="120" height="80" as="geometry" />
        </mxCell>
        <mxCell id="c--ynm-WmX_gCErY2zRD-69" value="机构子账户提现扣减" style="shape=document;whiteSpace=wrap;html=1;boundedLbl=1;" vertex="1" parent="c--ynm-WmX_gCErY2zRD-54">
          <mxGeometry x="185" y="740" width="120" height="80" as="geometry" />
        </mxCell>
        <mxCell id="c--ynm-WmX_gCErY2zRD-70" value="达人子账户提现扣减" style="shape=document;whiteSpace=wrap;html=1;boundedLbl=1;" vertex="1" parent="c--ynm-WmX_gCErY2zRD-54">
          <mxGeometry x="335" y="740" width="120" height="80" as="geometry" />
        </mxCell>
        <mxCell id="c--ynm-WmX_gCErY2zRD-71" style="edgeStyle=orthogonalEdgeStyle;rounded=0;orthogonalLoop=1;jettySize=auto;html=1;entryX=0;entryY=0.5;entryDx=0;entryDy=0;" edge="1" parent="c--ynm-WmX_gCErY2zRD-43" source="c--ynm-WmX_gCErY2zRD-53" target="c--ynm-WmX_gCErY2zRD-56">
          <mxGeometry relative="1" as="geometry" />
        </mxCell>
        <mxCell id="c--ynm-WmX_gCErY2zRD-72" value="D+1提现" style="edgeLabel;html=1;align=center;verticalAlign=middle;resizable=0;points=[];" vertex="1" connectable="0" parent="c--ynm-WmX_gCErY2zRD-71">
          <mxGeometry x="-0.2857" relative="1" as="geometry">
            <mxPoint as="offset" />
          </mxGeometry>
        </mxCell>
        <mxCell id="c--ynm-WmX_gCErY2zRD-73" value="达人/机构/尽微 银行账户" style="swimlane;html=1;startSize=20;" vertex="1" parent="c--ynm-WmX_gCErY2zRD-43">
          <mxGeometry x="950" y="20" width="160" height="1262" as="geometry" />
        </mxCell>
        <mxCell id="c--ynm-WmX_gCErY2zRD-74" value="达人对公银行账户" style="rounded=1;whiteSpace=wrap;html=1;shadow=0;labelBackgroundColor=none;strokeWidth=1;fontFamily=Verdana;fontSize=8;align=center;" vertex="1" parent="c--ynm-WmX_gCErY2zRD-73">
          <mxGeometry x="25" y="955" width="100" height="60" as="geometry" />
        </mxCell>
        <mxCell id="c--ynm-WmX_gCErY2zRD-75" value="机构对公银行账户" style="rounded=1;whiteSpace=wrap;html=1;shadow=0;labelBackgroundColor=none;strokeWidth=1;fontFamily=Verdana;fontSize=8;align=center;" vertex="1" parent="c--ynm-WmX_gCErY2zRD-73">
          <mxGeometry x="25" y="1055" width="100" height="60" as="geometry" />
        </mxCell>
        <mxCell id="c--ynm-WmX_gCErY2zRD-76" value="尽微对公银行账户" style="rounded=1;whiteSpace=wrap;html=1;shadow=0;labelBackgroundColor=none;strokeWidth=1;fontFamily=Verdana;fontSize=8;align=center;" vertex="1" parent="c--ynm-WmX_gCErY2zRD-73">
          <mxGeometry x="25" y="1155" width="100" height="60" as="geometry" />
        </mxCell>
        <mxCell id="c--ynm-WmX_gCErY2zRD-77" style="edgeStyle=orthogonalEdgeStyle;rounded=0;orthogonalLoop=1;jettySize=auto;html=1;" edge="1" parent="c--ynm-WmX_gCErY2zRD-43" source="c--ynm-WmX_gCErY2zRD-49" target="c--ynm-WmX_gCErY2zRD-55">
          <mxGeometry relative="1" as="geometry" />
        </mxCell>
        <mxCell id="c--ynm-WmX_gCErY2zRD-78" value="冻结充值" style="edgeLabel;html=1;align=center;verticalAlign=middle;resizable=0;points=[];" vertex="1" connectable="0" parent="c--ynm-WmX_gCErY2zRD-77">
          <mxGeometry x="-0.2286" relative="1" as="geometry">
            <mxPoint as="offset" />
          </mxGeometry>
        </mxCell>
        <mxCell id="c--ynm-WmX_gCErY2zRD-79" style="edgeStyle=orthogonalEdgeStyle;rounded=0;orthogonalLoop=1;jettySize=auto;html=1;entryX=0;entryY=0.5;entryDx=0;entryDy=0;exitX=0.5;exitY=1;exitDx=0;exitDy=0;" edge="1" parent="c--ynm-WmX_gCErY2zRD-43" source="c--ynm-WmX_gCErY2zRD-67" target="c--ynm-WmX_gCErY2zRD-74">
          <mxGeometry relative="1" as="geometry" />
        </mxCell>
        <mxCell id="c--ynm-WmX_gCErY2zRD-80" style="edgeStyle=orthogonalEdgeStyle;rounded=0;orthogonalLoop=1;jettySize=auto;html=1;entryX=0;entryY=0.5;entryDx=0;entryDy=0;exitX=0.5;exitY=1;exitDx=0;exitDy=0;" edge="1" parent="c--ynm-WmX_gCErY2zRD-43" source="c--ynm-WmX_gCErY2zRD-67" target="c--ynm-WmX_gCErY2zRD-75">
          <mxGeometry relative="1" as="geometry" />
        </mxCell>
        <mxCell id="c--ynm-WmX_gCErY2zRD-81" style="edgeStyle=orthogonalEdgeStyle;rounded=0;orthogonalLoop=1;jettySize=auto;html=1;entryX=0;entryY=0.5;entryDx=0;entryDy=0;exitX=0.5;exitY=1;exitDx=0;exitDy=0;" edge="1" parent="c--ynm-WmX_gCErY2zRD-43" source="c--ynm-WmX_gCErY2zRD-67" target="c--ynm-WmX_gCErY2zRD-76">
          <mxGeometry relative="1" as="geometry" />
        </mxCell>
        <mxCell id="c--ynm-WmX_gCErY2zRD-82" value="提现" style="edgeLabel;html=1;align=center;verticalAlign=middle;resizable=0;points=[];" vertex="1" connectable="0" parent="c--ynm-WmX_gCErY2zRD-81">
          <mxGeometry x="-0.3939" y="2" relative="1" as="geometry">
            <mxPoint as="offset" />
          </mxGeometry>
        </mxCell>
        <mxCell id="c--ynm-WmX_gCErY2zRD-85" value="平安银行-资金流向 &amp;amp; 账务信息流向" style="swimlane;html=1;childLayout=stackLayout;startSize=20;rounded=0;shadow=0;labelBackgroundColor=none;strokeWidth=1;fontFamily=Verdana;fontSize=8;align=center;" vertex="1" parent="1">
          <mxGeometry x="59" y="2827" width="1110" height="1282" as="geometry" />
        </mxCell>
        <mxCell id="c--ynm-WmX_gCErY2zRD-86" value="供应商" style="swimlane;html=1;startSize=20;fillColor=#99FFFF;" vertex="1" parent="c--ynm-WmX_gCErY2zRD-85">
          <mxGeometry y="20" width="160" height="1262" as="geometry" />
        </mxCell>
        <mxCell id="c--ynm-WmX_gCErY2zRD-87" value="银行账户" style="rounded=1;whiteSpace=wrap;html=1;shadow=0;labelBackgroundColor=none;strokeWidth=1;fontFamily=Verdana;fontSize=8;align=center;fillColor=#66FFFF;" vertex="1" parent="c--ynm-WmX_gCErY2zRD-86">
          <mxGeometry x="20" y="65" width="100" height="60" as="geometry" />
        </mxCell>
        <mxCell id="c--ynm-WmX_gCErY2zRD-88" value="" style="endArrow=none;html=1;rounded=0;" edge="1" parent="c--ynm-WmX_gCErY2zRD-86">
          <mxGeometry width="50" height="50" relative="1" as="geometry">
            <mxPoint y="690" as="sourcePoint" />
            <mxPoint x="1110" y="690" as="targetPoint" />
          </mxGeometry>
        </mxCell>
        <mxCell id="c--ynm-WmX_gCErY2zRD-89" style="edgeStyle=orthogonalEdgeStyle;rounded=1;html=1;labelBackgroundColor=none;startArrow=none;startFill=0;startSize=5;endArrow=classicThin;endFill=1;endSize=5;jettySize=auto;orthogonalLoop=1;strokeWidth=1;fontFamily=Verdana;fontSize=8" edge="1" parent="c--ynm-WmX_gCErY2zRD-85" source="c--ynm-WmX_gCErY2zRD-87" target="c--ynm-WmX_gCErY2zRD-94">
          <mxGeometry relative="1" as="geometry" />
        </mxCell>
        <mxCell id="c--ynm-WmX_gCErY2zRD-90" value="尽微" style="swimlane;html=1;startSize=20;fillColor=#007FFF;" vertex="1" parent="c--ynm-WmX_gCErY2zRD-85">
          <mxGeometry x="160" y="20" width="160" height="1262" as="geometry" />
        </mxCell>
        <mxCell id="c--ynm-WmX_gCErY2zRD-91" value="供应商支付单" style="shape=document;whiteSpace=wrap;html=1;boundedLbl=1;" vertex="1" parent="c--ynm-WmX_gCErY2zRD-90">
          <mxGeometry x="20" y="180" width="120" height="80" as="geometry" />
        </mxCell>
        <mxCell id="c--ynm-WmX_gCErY2zRD-92" value="" style="endArrow=none;html=1;rounded=0;" edge="1" parent="c--ynm-WmX_gCErY2zRD-90">
          <mxGeometry width="50" height="50" relative="1" as="geometry">
            <mxPoint x="-160" y="400" as="sourcePoint" />
            <mxPoint x="950" y="400" as="targetPoint" />
          </mxGeometry>
        </mxCell>
        <mxCell id="c--ynm-WmX_gCErY2zRD-93" value="易宝支付" style="swimlane;html=1;startSize=20;fillColor=#66FFB3;" vertex="1" parent="c--ynm-WmX_gCErY2zRD-85">
          <mxGeometry x="320" y="20" width="160" height="1262" as="geometry" />
        </mxCell>
        <mxCell id="c--ynm-WmX_gCErY2zRD-94" value="尽微收款商户" style="rounded=1;whiteSpace=wrap;html=1;shadow=0;labelBackgroundColor=none;strokeWidth=1;fontFamily=Verdana;fontSize=8;align=center;" vertex="1" parent="c--ynm-WmX_gCErY2zRD-93">
          <mxGeometry x="30" y="65" width="100" height="60" as="geometry" />
        </mxCell>
        <mxCell id="c--ynm-WmX_gCErY2zRD-95" value="尽微收款商户" style="rounded=1;whiteSpace=wrap;html=1;shadow=0;labelBackgroundColor=none;strokeWidth=1;fontFamily=Verdana;fontSize=8;align=center;" vertex="1" parent="c--ynm-WmX_gCErY2zRD-93">
          <mxGeometry x="30" y="305" width="100" height="60" as="geometry" />
        </mxCell>
        <mxCell id="c--ynm-WmX_gCErY2zRD-96" value="平安银行(见证宝)" style="swimlane;html=1;startSize=20;fillColor=#FF9933;" vertex="1" parent="c--ynm-WmX_gCErY2zRD-85">
          <mxGeometry x="480" y="20" width="470" height="1262" as="geometry" />
        </mxCell>
        <mxCell id="c--ynm-WmX_gCErY2zRD-97" value="达人 or 机构 子账户" style="shape=document;whiteSpace=wrap;html=1;boundedLbl=1;fillColor=#FF66FF;" vertex="1" parent="c--ynm-WmX_gCErY2zRD-96">
          <mxGeometry x="180" y="180" width="120" height="80" as="geometry" />
        </mxCell>
        <mxCell id="c--ynm-WmX_gCErY2zRD-98" value="见证宝汇总专户" style="rounded=1;whiteSpace=wrap;html=1;shadow=0;labelBackgroundColor=none;strokeWidth=1;fontFamily=Verdana;fontSize=8;align=center;" vertex="1" parent="c--ynm-WmX_gCErY2zRD-96">
          <mxGeometry x="190" y="305" width="100" height="60" as="geometry" />
        </mxCell>
        <mxCell id="c--ynm-WmX_gCErY2zRD-99" style="edgeStyle=orthogonalEdgeStyle;rounded=0;orthogonalLoop=1;jettySize=auto;html=1;entryX=0.5;entryY=0;entryDx=0;entryDy=0;" edge="1" parent="c--ynm-WmX_gCErY2zRD-96" source="c--ynm-WmX_gCErY2zRD-105" target="c--ynm-WmX_gCErY2zRD-106">
          <mxGeometry relative="1" as="geometry" />
        </mxCell>
        <mxCell id="c--ynm-WmX_gCErY2zRD-100" value="分账-支付平台服务费" style="edgeLabel;html=1;align=center;verticalAlign=middle;resizable=0;points=[];" vertex="1" connectable="0" parent="c--ynm-WmX_gCErY2zRD-99">
          <mxGeometry x="-0.14" y="-2" relative="1" as="geometry">
            <mxPoint as="offset" />
          </mxGeometry>
        </mxCell>
        <mxCell id="c--ynm-WmX_gCErY2zRD-101" style="edgeStyle=orthogonalEdgeStyle;rounded=0;orthogonalLoop=1;jettySize=auto;html=1;entryX=0.5;entryY=0;entryDx=0;entryDy=0;" edge="1" parent="c--ynm-WmX_gCErY2zRD-96" source="c--ynm-WmX_gCErY2zRD-105" target="c--ynm-WmX_gCErY2zRD-107">
          <mxGeometry relative="1" as="geometry" />
        </mxCell>
        <mxCell id="c--ynm-WmX_gCErY2zRD-102" value="分账-佣金" style="edgeLabel;html=1;align=center;verticalAlign=middle;resizable=0;points=[];" vertex="1" connectable="0" parent="c--ynm-WmX_gCErY2zRD-101">
          <mxGeometry x="-0.1667" y="1" relative="1" as="geometry">
            <mxPoint as="offset" />
          </mxGeometry>
        </mxCell>
        <mxCell id="c--ynm-WmX_gCErY2zRD-103" style="edgeStyle=orthogonalEdgeStyle;rounded=0;orthogonalLoop=1;jettySize=auto;html=1;entryX=0.5;entryY=0;entryDx=0;entryDy=0;" edge="1" parent="c--ynm-WmX_gCErY2zRD-96" source="c--ynm-WmX_gCErY2zRD-105" target="c--ynm-WmX_gCErY2zRD-108">
          <mxGeometry relative="1" as="geometry" />
        </mxCell>
        <mxCell id="c--ynm-WmX_gCErY2zRD-104" value="分账-品牌费" style="edgeLabel;html=1;align=center;verticalAlign=middle;resizable=0;points=[];" vertex="1" connectable="0" parent="c--ynm-WmX_gCErY2zRD-103">
          <mxGeometry x="-0.1158" y="-1" relative="1" as="geometry">
            <mxPoint as="offset" />
          </mxGeometry>
        </mxCell>
        <mxCell id="c--ynm-WmX_gCErY2zRD-105" value="达人 or 机构 子账户" style="shape=document;whiteSpace=wrap;html=1;boundedLbl=1;fillColor=#FF66FF;" vertex="1" parent="c--ynm-WmX_gCErY2zRD-96">
          <mxGeometry x="180" y="440" width="120" height="80" as="geometry" />
        </mxCell>
        <mxCell id="c--ynm-WmX_gCErY2zRD-106" value="尽微服务费子账户" style="shape=document;whiteSpace=wrap;html=1;boundedLbl=1;" vertex="1" parent="c--ynm-WmX_gCErY2zRD-96">
          <mxGeometry x="20" y="580" width="120" height="80" as="geometry" />
        </mxCell>
        <mxCell id="c--ynm-WmX_gCErY2zRD-107" value="机构子账户" style="shape=document;whiteSpace=wrap;html=1;boundedLbl=1;" vertex="1" parent="c--ynm-WmX_gCErY2zRD-96">
          <mxGeometry x="180" y="580" width="120" height="80" as="geometry" />
        </mxCell>
        <mxCell id="c--ynm-WmX_gCErY2zRD-108" value="达人子账户" style="shape=document;whiteSpace=wrap;html=1;boundedLbl=1;" vertex="1" parent="c--ynm-WmX_gCErY2zRD-96">
          <mxGeometry x="330" y="580" width="120" height="80" as="geometry" />
        </mxCell>
        <mxCell id="c--ynm-WmX_gCErY2zRD-109" value="见证宝汇总专户" style="rounded=1;whiteSpace=wrap;html=1;shadow=0;labelBackgroundColor=none;strokeWidth=1;fontFamily=Verdana;fontSize=8;align=center;" vertex="1" parent="c--ynm-WmX_gCErY2zRD-96">
          <mxGeometry x="190" y="885" width="100" height="60" as="geometry" />
        </mxCell>
        <mxCell id="c--ynm-WmX_gCErY2zRD-110" value="尽微服务费子账户提现扣减" style="shape=document;whiteSpace=wrap;html=1;boundedLbl=1;fillColor=#FFFFFF;" vertex="1" parent="c--ynm-WmX_gCErY2zRD-96">
          <mxGeometry x="25" y="740" width="120" height="80" as="geometry" />
        </mxCell>
        <mxCell id="c--ynm-WmX_gCErY2zRD-111" value="机构子账户提现扣减" style="shape=document;whiteSpace=wrap;html=1;boundedLbl=1;" vertex="1" parent="c--ynm-WmX_gCErY2zRD-96">
          <mxGeometry x="185" y="740" width="120" height="80" as="geometry" />
        </mxCell>
        <mxCell id="c--ynm-WmX_gCErY2zRD-112" value="达人子账户提现扣减" style="shape=document;whiteSpace=wrap;html=1;boundedLbl=1;" vertex="1" parent="c--ynm-WmX_gCErY2zRD-96">
          <mxGeometry x="335" y="740" width="120" height="80" as="geometry" />
        </mxCell>
        <mxCell id="c--ynm-WmX_gCErY2zRD-113" style="edgeStyle=orthogonalEdgeStyle;rounded=0;orthogonalLoop=1;jettySize=auto;html=1;entryX=0;entryY=0.5;entryDx=0;entryDy=0;" edge="1" parent="c--ynm-WmX_gCErY2zRD-85" source="c--ynm-WmX_gCErY2zRD-95" target="c--ynm-WmX_gCErY2zRD-98">
          <mxGeometry relative="1" as="geometry" />
        </mxCell>
        <mxCell id="c--ynm-WmX_gCErY2zRD-114" value="D+1提现" style="edgeLabel;html=1;align=center;verticalAlign=middle;resizable=0;points=[];" vertex="1" connectable="0" parent="c--ynm-WmX_gCErY2zRD-113">
          <mxGeometry x="-0.2857" relative="1" as="geometry">
            <mxPoint as="offset" />
          </mxGeometry>
        </mxCell>
        <mxCell id="c--ynm-WmX_gCErY2zRD-115" value="达人/机构/尽微 银行账户" style="swimlane;html=1;startSize=20;" vertex="1" parent="c--ynm-WmX_gCErY2zRD-85">
          <mxGeometry x="950" y="20" width="160" height="1262" as="geometry" />
        </mxCell>
        <mxCell id="c--ynm-WmX_gCErY2zRD-116" value="达人对公银行账户" style="rounded=1;whiteSpace=wrap;html=1;shadow=0;labelBackgroundColor=none;strokeWidth=1;fontFamily=Verdana;fontSize=8;align=center;" vertex="1" parent="c--ynm-WmX_gCErY2zRD-115">
          <mxGeometry x="25" y="955" width="100" height="60" as="geometry" />
        </mxCell>
        <mxCell id="c--ynm-WmX_gCErY2zRD-117" value="机构对公银行账户" style="rounded=1;whiteSpace=wrap;html=1;shadow=0;labelBackgroundColor=none;strokeWidth=1;fontFamily=Verdana;fontSize=8;align=center;" vertex="1" parent="c--ynm-WmX_gCErY2zRD-115">
          <mxGeometry x="25" y="1055" width="100" height="60" as="geometry" />
        </mxCell>
        <mxCell id="c--ynm-WmX_gCErY2zRD-118" value="尽微对公银行账户" style="rounded=1;whiteSpace=wrap;html=1;shadow=0;labelBackgroundColor=none;strokeWidth=1;fontFamily=Verdana;fontSize=8;align=center;" vertex="1" parent="c--ynm-WmX_gCErY2zRD-115">
          <mxGeometry x="25" y="1155" width="100" height="60" as="geometry" />
        </mxCell>
        <mxCell id="c--ynm-WmX_gCErY2zRD-119" style="edgeStyle=orthogonalEdgeStyle;rounded=0;orthogonalLoop=1;jettySize=auto;html=1;" edge="1" parent="c--ynm-WmX_gCErY2zRD-85" source="c--ynm-WmX_gCErY2zRD-91" target="c--ynm-WmX_gCErY2zRD-97">
          <mxGeometry relative="1" as="geometry" />
        </mxCell>
        <mxCell id="c--ynm-WmX_gCErY2zRD-120" value="冻结充值" style="edgeLabel;html=1;align=center;verticalAlign=middle;resizable=0;points=[];" vertex="1" connectable="0" parent="c--ynm-WmX_gCErY2zRD-119">
          <mxGeometry x="-0.2286" relative="1" as="geometry">
            <mxPoint as="offset" />
          </mxGeometry>
        </mxCell>
        <mxCell id="c--ynm-WmX_gCErY2zRD-121" style="edgeStyle=orthogonalEdgeStyle;rounded=0;orthogonalLoop=1;jettySize=auto;html=1;entryX=0;entryY=0.5;entryDx=0;entryDy=0;exitX=0.5;exitY=1;exitDx=0;exitDy=0;" edge="1" parent="c--ynm-WmX_gCErY2zRD-85" source="c--ynm-WmX_gCErY2zRD-109" target="c--ynm-WmX_gCErY2zRD-116">
          <mxGeometry relative="1" as="geometry" />
        </mxCell>
        <mxCell id="c--ynm-WmX_gCErY2zRD-122" style="edgeStyle=orthogonalEdgeStyle;rounded=0;orthogonalLoop=1;jettySize=auto;html=1;entryX=0;entryY=0.5;entryDx=0;entryDy=0;exitX=0.5;exitY=1;exitDx=0;exitDy=0;" edge="1" parent="c--ynm-WmX_gCErY2zRD-85" source="c--ynm-WmX_gCErY2zRD-109" target="c--ynm-WmX_gCErY2zRD-117">
          <mxGeometry relative="1" as="geometry" />
        </mxCell>
        <mxCell id="c--ynm-WmX_gCErY2zRD-123" style="edgeStyle=orthogonalEdgeStyle;rounded=0;orthogonalLoop=1;jettySize=auto;html=1;entryX=0;entryY=0.5;entryDx=0;entryDy=0;exitX=0.5;exitY=1;exitDx=0;exitDy=0;" edge="1" parent="c--ynm-WmX_gCErY2zRD-85" source="c--ynm-WmX_gCErY2zRD-109" target="c--ynm-WmX_gCErY2zRD-118">
          <mxGeometry relative="1" as="geometry" />
        </mxCell>
        <mxCell id="c--ynm-WmX_gCErY2zRD-124" value="提现" style="edgeLabel;html=1;align=center;verticalAlign=middle;resizable=0;points=[];" vertex="1" connectable="0" parent="c--ynm-WmX_gCErY2zRD-123">
          <mxGeometry x="-0.3939" y="2" relative="1" as="geometry">
            <mxPoint as="offset" />
          </mxGeometry>
        </mxCell>
        <mxCell id="c--ynm-WmX_gCErY2zRD-125" value="平安银行-资金流向 &amp;amp; 账务信息流向" style="swimlane;html=1;childLayout=stackLayout;startSize=20;rounded=0;shadow=0;labelBackgroundColor=none;strokeWidth=1;fontFamily=Verdana;fontSize=8;align=center;" vertex="1" parent="1">
          <mxGeometry x="52" y="4253" width="1110" height="1458" as="geometry" />
        </mxCell>
        <mxCell id="c--ynm-WmX_gCErY2zRD-126" value="供应商" style="swimlane;html=1;startSize=20;fillColor=#99FFFF;" vertex="1" parent="c--ynm-WmX_gCErY2zRD-125">
          <mxGeometry y="20" width="160" height="1438" as="geometry" />
        </mxCell>
        <mxCell id="c--ynm-WmX_gCErY2zRD-127" value="银行账户" style="rounded=1;whiteSpace=wrap;html=1;shadow=0;labelBackgroundColor=none;strokeWidth=1;fontFamily=Verdana;fontSize=8;align=center;fillColor=#66FFFF;" vertex="1" parent="c--ynm-WmX_gCErY2zRD-126">
          <mxGeometry x="20" y="65" width="100" height="60" as="geometry" />
        </mxCell>
        <mxCell id="c--ynm-WmX_gCErY2zRD-128" value="" style="endArrow=none;html=1;rounded=0;" edge="1" parent="c--ynm-WmX_gCErY2zRD-126">
          <mxGeometry width="50" height="50" relative="1" as="geometry">
            <mxPoint y="835" as="sourcePoint" />
            <mxPoint x="1110" y="835" as="targetPoint" />
          </mxGeometry>
        </mxCell>
        <mxCell id="c--ynm-WmX_gCErY2zRD-129" style="edgeStyle=orthogonalEdgeStyle;rounded=1;html=1;labelBackgroundColor=none;startArrow=none;startFill=0;startSize=5;endArrow=classicThin;endFill=1;endSize=5;jettySize=auto;orthogonalLoop=1;strokeWidth=1;fontFamily=Verdana;fontSize=8" edge="1" parent="c--ynm-WmX_gCErY2zRD-125" source="c--ynm-WmX_gCErY2zRD-127" target="c--ynm-WmX_gCErY2zRD-134">
          <mxGeometry relative="1" as="geometry" />
        </mxCell>
        <mxCell id="c--ynm-WmX_gCErY2zRD-130" value="尽微" style="swimlane;html=1;startSize=20;fillColor=#007FFF;" vertex="1" parent="c--ynm-WmX_gCErY2zRD-125">
          <mxGeometry x="160" y="20" width="160" height="1438" as="geometry" />
        </mxCell>
        <mxCell id="c--ynm-WmX_gCErY2zRD-131" value="供应商支付单" style="shape=document;whiteSpace=wrap;html=1;boundedLbl=1;" vertex="1" parent="c--ynm-WmX_gCErY2zRD-130">
          <mxGeometry x="20" y="177" width="120" height="80" as="geometry" />
        </mxCell>
        <mxCell id="c--ynm-WmX_gCErY2zRD-133" value="易宝支付" style="swimlane;html=1;startSize=20;fillColor=#66FFB3;" vertex="1" parent="c--ynm-WmX_gCErY2zRD-125">
          <mxGeometry x="320" y="20" width="160" height="1438" as="geometry" />
        </mxCell>
        <mxCell id="c--ynm-WmX_gCErY2zRD-134" value="尽微收款商户" style="rounded=1;whiteSpace=wrap;html=1;shadow=0;labelBackgroundColor=none;strokeWidth=1;fontFamily=Verdana;fontSize=8;align=center;" vertex="1" parent="c--ynm-WmX_gCErY2zRD-133">
          <mxGeometry x="30" y="65" width="100" height="60" as="geometry" />
        </mxCell>
        <mxCell id="c--ynm-WmX_gCErY2zRD-135" value="尽微收款商户" style="rounded=1;whiteSpace=wrap;html=1;shadow=0;labelBackgroundColor=none;strokeWidth=1;fontFamily=Verdana;fontSize=8;align=center;" vertex="1" parent="c--ynm-WmX_gCErY2zRD-133">
          <mxGeometry x="26" y="468" width="100" height="60" as="geometry" />
        </mxCell>
        <mxCell id="c--ynm-WmX_gCErY2zRD-153" style="edgeStyle=orthogonalEdgeStyle;rounded=0;orthogonalLoop=1;jettySize=auto;html=1;entryX=0;entryY=0.5;entryDx=0;entryDy=0;" edge="1" parent="c--ynm-WmX_gCErY2zRD-125" source="c--ynm-WmX_gCErY2zRD-135" target="c--ynm-WmX_gCErY2zRD-138">
          <mxGeometry relative="1" as="geometry" />
        </mxCell>
        <mxCell id="c--ynm-WmX_gCErY2zRD-154" value="D+1提现" style="edgeLabel;html=1;align=center;verticalAlign=middle;resizable=0;points=[];" vertex="1" connectable="0" parent="c--ynm-WmX_gCErY2zRD-153">
          <mxGeometry x="-0.2857" relative="1" as="geometry">
            <mxPoint as="offset" />
          </mxGeometry>
        </mxCell>
        <mxCell id="c--ynm-WmX_gCErY2zRD-161" style="edgeStyle=orthogonalEdgeStyle;rounded=0;orthogonalLoop=1;jettySize=auto;html=1;entryX=0;entryY=0.5;entryDx=0;entryDy=0;exitX=0.5;exitY=1;exitDx=0;exitDy=0;" edge="1" parent="c--ynm-WmX_gCErY2zRD-125" source="c--ynm-WmX_gCErY2zRD-149" target="c--ynm-WmX_gCErY2zRD-156">
          <mxGeometry relative="1" as="geometry" />
        </mxCell>
        <mxCell id="c--ynm-WmX_gCErY2zRD-162" style="edgeStyle=orthogonalEdgeStyle;rounded=0;orthogonalLoop=1;jettySize=auto;html=1;entryX=0;entryY=0.5;entryDx=0;entryDy=0;exitX=0.5;exitY=1;exitDx=0;exitDy=0;" edge="1" parent="c--ynm-WmX_gCErY2zRD-125" source="c--ynm-WmX_gCErY2zRD-149" target="c--ynm-WmX_gCErY2zRD-157">
          <mxGeometry relative="1" as="geometry" />
        </mxCell>
        <mxCell id="c--ynm-WmX_gCErY2zRD-163" style="edgeStyle=orthogonalEdgeStyle;rounded=0;orthogonalLoop=1;jettySize=auto;html=1;entryX=0;entryY=0.5;entryDx=0;entryDy=0;exitX=0.5;exitY=1;exitDx=0;exitDy=0;" edge="1" parent="c--ynm-WmX_gCErY2zRD-125" source="c--ynm-WmX_gCErY2zRD-149" target="c--ynm-WmX_gCErY2zRD-158">
          <mxGeometry relative="1" as="geometry" />
        </mxCell>
        <mxCell id="c--ynm-WmX_gCErY2zRD-164" value="提现" style="edgeLabel;html=1;align=center;verticalAlign=middle;resizable=0;points=[];" vertex="1" connectable="0" parent="c--ynm-WmX_gCErY2zRD-163">
          <mxGeometry x="-0.3939" y="2" relative="1" as="geometry">
            <mxPoint as="offset" />
          </mxGeometry>
        </mxCell>
        <mxCell id="c--ynm-WmX_gCErY2zRD-136" value="平安银行(见证宝)" style="swimlane;html=1;startSize=20;fillColor=#FF9933;" vertex="1" parent="c--ynm-WmX_gCErY2zRD-125">
          <mxGeometry x="480" y="20" width="470" height="1438" as="geometry" />
        </mxCell>
        <mxCell id="c--ynm-WmX_gCErY2zRD-138" value="见证宝汇总专户" style="rounded=1;whiteSpace=wrap;html=1;shadow=0;labelBackgroundColor=none;strokeWidth=1;fontFamily=Verdana;fontSize=8;align=center;" vertex="1" parent="c--ynm-WmX_gCErY2zRD-136">
          <mxGeometry x="186" y="468" width="100" height="60" as="geometry" />
        </mxCell>
        <mxCell id="c--ynm-WmX_gCErY2zRD-139" style="edgeStyle=orthogonalEdgeStyle;rounded=0;orthogonalLoop=1;jettySize=auto;html=1;entryX=1;entryY=0.5;entryDx=0;entryDy=0;exitX=0.5;exitY=0;exitDx=0;exitDy=0;" edge="1" parent="c--ynm-WmX_gCErY2zRD-136" source="c--ynm-WmX_gCErY2zRD-146" target="c--ynm-WmX_gCErY2zRD-146">
          <mxGeometry relative="1" as="geometry">
            <mxPoint x="129" y="657" as="sourcePoint" />
            <Array as="points">
              <mxPoint x="68" y="643" />
              <mxPoint x="148" y="643" />
              <mxPoint x="148" y="757" />
            </Array>
          </mxGeometry>
        </mxCell>
        <mxCell id="c--ynm-WmX_gCErY2zRD-140" value="分账-支付平台服务费" style="edgeLabel;html=1;align=center;verticalAlign=middle;resizable=0;points=[];" vertex="1" connectable="0" parent="c--ynm-WmX_gCErY2zRD-139">
          <mxGeometry x="-0.14" y="-2" relative="1" as="geometry">
            <mxPoint as="offset" />
          </mxGeometry>
        </mxCell>
        <mxCell id="c--ynm-WmX_gCErY2zRD-141" style="edgeStyle=orthogonalEdgeStyle;rounded=0;orthogonalLoop=1;jettySize=auto;html=1;entryX=1;entryY=0.5;entryDx=0;entryDy=0;exitX=0.5;exitY=0;exitDx=0;exitDy=0;" edge="1" parent="c--ynm-WmX_gCErY2zRD-136" source="c--ynm-WmX_gCErY2zRD-147" target="c--ynm-WmX_gCErY2zRD-147">
          <mxGeometry relative="1" as="geometry">
            <mxPoint x="228" y="645" as="sourcePoint" />
            <Array as="points">
              <mxPoint x="228" y="647" />
              <mxPoint x="308" y="647" />
              <mxPoint x="308" y="757" />
            </Array>
          </mxGeometry>
        </mxCell>
        <mxCell id="c--ynm-WmX_gCErY2zRD-142" value="分账-佣金" style="edgeLabel;html=1;align=center;verticalAlign=middle;resizable=0;points=[];" vertex="1" connectable="0" parent="c--ynm-WmX_gCErY2zRD-141">
          <mxGeometry x="-0.1667" y="1" relative="1" as="geometry">
            <mxPoint as="offset" />
          </mxGeometry>
        </mxCell>
        <mxCell id="c--ynm-WmX_gCErY2zRD-143" style="edgeStyle=orthogonalEdgeStyle;rounded=0;orthogonalLoop=1;jettySize=auto;html=1;entryX=1;entryY=0.5;entryDx=0;entryDy=0;exitX=0.5;exitY=0;exitDx=0;exitDy=0;" edge="1" parent="c--ynm-WmX_gCErY2zRD-136" source="c--ynm-WmX_gCErY2zRD-148" target="c--ynm-WmX_gCErY2zRD-148">
          <mxGeometry relative="1" as="geometry">
            <mxPoint x="288" y="617" as="sourcePoint" />
            <Array as="points">
              <mxPoint x="378" y="647" />
              <mxPoint x="458" y="647" />
              <mxPoint x="458" y="757" />
            </Array>
          </mxGeometry>
        </mxCell>
        <mxCell id="c--ynm-WmX_gCErY2zRD-144" value="分账-品牌费" style="edgeLabel;html=1;align=center;verticalAlign=middle;resizable=0;points=[];" vertex="1" connectable="0" parent="c--ynm-WmX_gCErY2zRD-143">
          <mxGeometry x="-0.1158" y="-1" relative="1" as="geometry">
            <mxPoint as="offset" />
          </mxGeometry>
        </mxCell>
        <mxCell id="c--ynm-WmX_gCErY2zRD-146" value="尽微服务费子账户" style="shape=document;whiteSpace=wrap;html=1;boundedLbl=1;" vertex="1" parent="c--ynm-WmX_gCErY2zRD-136">
          <mxGeometry x="8" y="717" width="120" height="80" as="geometry" />
        </mxCell>
        <mxCell id="c--ynm-WmX_gCErY2zRD-147" value="机构子账户" style="shape=document;whiteSpace=wrap;html=1;boundedLbl=1;" vertex="1" parent="c--ynm-WmX_gCErY2zRD-136">
          <mxGeometry x="168" y="717" width="120" height="80" as="geometry" />
        </mxCell>
        <mxCell id="c--ynm-WmX_gCErY2zRD-148" value="达人子账户" style="shape=document;whiteSpace=wrap;html=1;boundedLbl=1;" vertex="1" parent="c--ynm-WmX_gCErY2zRD-136">
          <mxGeometry x="318" y="717" width="120" height="80" as="geometry" />
        </mxCell>
        <mxCell id="c--ynm-WmX_gCErY2zRD-149" value="见证宝汇总专户" style="rounded=1;whiteSpace=wrap;html=1;shadow=0;labelBackgroundColor=none;strokeWidth=1;fontFamily=Verdana;fontSize=8;align=center;" vertex="1" parent="c--ynm-WmX_gCErY2zRD-136">
          <mxGeometry x="190" y="1030" width="100" height="60" as="geometry" />
        </mxCell>
        <mxCell id="c--ynm-WmX_gCErY2zRD-150" value="尽微服务费子账户提现扣减" style="shape=document;whiteSpace=wrap;html=1;boundedLbl=1;fillColor=#FFFFFF;" vertex="1" parent="c--ynm-WmX_gCErY2zRD-136">
          <mxGeometry x="25" y="885" width="120" height="80" as="geometry" />
        </mxCell>
        <mxCell id="c--ynm-WmX_gCErY2zRD-151" value="机构子账户提现扣减" style="shape=document;whiteSpace=wrap;html=1;boundedLbl=1;" vertex="1" parent="c--ynm-WmX_gCErY2zRD-136">
          <mxGeometry x="185" y="885" width="120" height="80" as="geometry" />
        </mxCell>
        <mxCell id="c--ynm-WmX_gCErY2zRD-152" value="达人子账户提现扣减" style="shape=document;whiteSpace=wrap;html=1;boundedLbl=1;" vertex="1" parent="c--ynm-WmX_gCErY2zRD-136">
          <mxGeometry x="335" y="885" width="120" height="80" as="geometry" />
        </mxCell>
        <mxCell id="c--ynm-WmX_gCErY2zRD-165" value="尽微服务费子账户" style="shape=document;whiteSpace=wrap;html=1;boundedLbl=1;" vertex="1" parent="c--ynm-WmX_gCErY2zRD-136">
          <mxGeometry x="180" y="157" width="120" height="80" as="geometry" />
        </mxCell>
        <mxCell id="c--ynm-WmX_gCErY2zRD-166" value="机构子账户" style="shape=document;whiteSpace=wrap;html=1;boundedLbl=1;" vertex="1" parent="c--ynm-WmX_gCErY2zRD-136">
          <mxGeometry x="185" y="257" width="120" height="80" as="geometry" />
        </mxCell>
        <mxCell id="c--ynm-WmX_gCErY2zRD-167" value="达人子账户" style="shape=document;whiteSpace=wrap;html=1;boundedLbl=1;" vertex="1" parent="c--ynm-WmX_gCErY2zRD-136">
          <mxGeometry x="185" y="364" width="120" height="80" as="geometry" />
        </mxCell>
        <mxCell id="c--ynm-WmX_gCErY2zRD-132" value="" style="endArrow=none;html=1;rounded=0;" edge="1" parent="c--ynm-WmX_gCErY2zRD-136">
          <mxGeometry width="50" height="50" relative="1" as="geometry">
            <mxPoint x="-479" y="597" as="sourcePoint" />
            <mxPoint x="631" y="597" as="targetPoint" />
          </mxGeometry>
        </mxCell>
        <mxCell id="c--ynm-WmX_gCErY2zRD-169" style="edgeStyle=orthogonalEdgeStyle;rounded=0;orthogonalLoop=1;jettySize=auto;html=1;entryX=0;entryY=0.5;entryDx=0;entryDy=0;exitX=1;exitY=0.5;exitDx=0;exitDy=0;" edge="1" parent="c--ynm-WmX_gCErY2zRD-125" source="c--ynm-WmX_gCErY2zRD-131" target="c--ynm-WmX_gCErY2zRD-166">
          <mxGeometry relative="1" as="geometry">
            <Array as="points">
              <mxPoint x="300" y="317" />
            </Array>
          </mxGeometry>
        </mxCell>
        <mxCell id="c--ynm-WmX_gCErY2zRD-172" value="冻结充值-佣金" style="edgeLabel;html=1;align=center;verticalAlign=middle;resizable=0;points=[];" vertex="1" connectable="0" parent="c--ynm-WmX_gCErY2zRD-169">
          <mxGeometry x="-0.0472" y="2" relative="1" as="geometry">
            <mxPoint as="offset" />
          </mxGeometry>
        </mxCell>
        <mxCell id="c--ynm-WmX_gCErY2zRD-170" style="edgeStyle=orthogonalEdgeStyle;rounded=0;orthogonalLoop=1;jettySize=auto;html=1;exitX=1;exitY=0.75;exitDx=0;exitDy=0;entryX=0;entryY=0.5;entryDx=0;entryDy=0;" edge="1" parent="c--ynm-WmX_gCErY2zRD-125" source="c--ynm-WmX_gCErY2zRD-131" target="c--ynm-WmX_gCErY2zRD-167">
          <mxGeometry relative="1" as="geometry">
            <Array as="points">
              <mxPoint x="300" y="424" />
            </Array>
          </mxGeometry>
        </mxCell>
        <mxCell id="c--ynm-WmX_gCErY2zRD-173" value="冻结充值-品牌费" style="edgeLabel;html=1;align=center;verticalAlign=middle;resizable=0;points=[];" vertex="1" connectable="0" parent="c--ynm-WmX_gCErY2zRD-170">
          <mxGeometry x="0.0602" y="-3" relative="1" as="geometry">
            <mxPoint as="offset" />
          </mxGeometry>
        </mxCell>
        <mxCell id="c--ynm-WmX_gCErY2zRD-155" value="达人/机构/尽微 银行账户" style="swimlane;html=1;startSize=20;" vertex="1" parent="c--ynm-WmX_gCErY2zRD-125">
          <mxGeometry x="950" y="20" width="160" height="1438" as="geometry" />
        </mxCell>
        <mxCell id="c--ynm-WmX_gCErY2zRD-156" value="达人对公银行账户" style="rounded=1;whiteSpace=wrap;html=1;shadow=0;labelBackgroundColor=none;strokeWidth=1;fontFamily=Verdana;fontSize=8;align=center;" vertex="1" parent="c--ynm-WmX_gCErY2zRD-155">
          <mxGeometry x="25" y="1100" width="100" height="60" as="geometry" />
        </mxCell>
        <mxCell id="c--ynm-WmX_gCErY2zRD-157" value="机构对公银行账户" style="rounded=1;whiteSpace=wrap;html=1;shadow=0;labelBackgroundColor=none;strokeWidth=1;fontFamily=Verdana;fontSize=8;align=center;" vertex="1" parent="c--ynm-WmX_gCErY2zRD-155">
          <mxGeometry x="25" y="1200" width="100" height="60" as="geometry" />
        </mxCell>
        <mxCell id="c--ynm-WmX_gCErY2zRD-158" value="尽微对公银行账户" style="rounded=1;whiteSpace=wrap;html=1;shadow=0;labelBackgroundColor=none;strokeWidth=1;fontFamily=Verdana;fontSize=8;align=center;" vertex="1" parent="c--ynm-WmX_gCErY2zRD-155">
          <mxGeometry x="25" y="1300" width="100" height="60" as="geometry" />
        </mxCell>
        <mxCell id="c--ynm-WmX_gCErY2zRD-168" style="edgeStyle=orthogonalEdgeStyle;rounded=0;orthogonalLoop=1;jettySize=auto;html=1;entryX=0;entryY=0.5;entryDx=0;entryDy=0;exitX=1;exitY=0.25;exitDx=0;exitDy=0;" edge="1" parent="c--ynm-WmX_gCErY2zRD-125" source="c--ynm-WmX_gCErY2zRD-131" target="c--ynm-WmX_gCErY2zRD-165">
          <mxGeometry relative="1" as="geometry" />
        </mxCell>
        <mxCell id="c--ynm-WmX_gCErY2zRD-171" value="冻结充值-技术服务费" style="edgeLabel;html=1;align=center;verticalAlign=middle;resizable=0;points=[];" vertex="1" connectable="0" parent="c--ynm-WmX_gCErY2zRD-168">
          <mxGeometry x="-0.2278" y="-1" relative="1" as="geometry">
            <mxPoint as="offset" />
          </mxGeometry>
        </mxCell>
      </root>
    </mxGraphModel>
  </diagram>
</mxfile>
